<svg width="48" height="16" viewBox="0 0 48 16" fill="none" xmlns="http://www.w3.org/2000/svg">
  <rect width="48" height="16" rx="2" fill="#1A1F71"/>
  <path d="M20.5 4.5L18.5 11.5H16.5L18.5 4.5H20.5ZM24.5 4.5L22.5 11.5H20.5L22.5 4.5H24.5ZM28.5 4.5L26.5 11.5H24.5L26.5 4.5H28.5ZM32.5 4.5L30.5 11.5H28.5L30.5 4.5H32.5ZM36.5 4.5L34.5 11.5H32.5L34.5 4.5H36.5ZM40.5 4.5L38.5 11.5H36.5L38.5 4.5H40.5ZM44.5 4.5L42.5 11.5H40.5L42.5 4.5H44.5ZM48.5 4.5L46.5 11.5H44.5L46.5 4.5H48.5Z" fill="white"/>
  <path d="M12.5 4.5L10.5 11.5H8.5L10.5 4.5H12.5ZM16.5 4.5L14.5 11.5H12.5L14.5 4.5H16.5ZM20.5 4.5L18.5 11.5H16.5L18.5 4.5H20.5ZM24.5 4.5L22.5 11.5H20.5L22.5 4.5H24.5ZM28.5 4.5L26.5 11.5H24.5L26.5 4.5H28.5ZM32.5 4.5L30.5 11.5H28.5L30.5 4.5H32.5ZM36.5 4.5L34.5 11.5H32.5L34.5 4.5H36.5ZM40.5 4.5L38.5 11.5H36.5L38.5 4.5H40.5ZM44.5 4.5L42.5 11.5H40.5L42.5 4.5H44.5ZM48.5 4.5L46.5 11.5H44.5L46.5 4.5H48.5Z" fill="white"/>
</svg> 